<?xml version="1.0" encoding="UTF-8"?><svg id="Capa_1" xmlns="http://www.w3.org/2000/svg" viewBox="0 0 1054 580"><defs><style>.cls-1{fill:#ffa900;}.cls-2{fill:#45474a;}</style></defs><g><path class="cls-2" d="M414.62,262.65h13.24v36.31h22.33v10.5h-35.57v-46.8Z"/><path class="cls-2" d="M463.69,286.05c0-14.04,11.03-24.34,26.01-24.34s26.01,10.3,26.01,24.34-11.03,24.34-26.01,24.34-26.01-10.3-26.01-24.34Zm38.65,0c0-8.09-5.55-13.37-12.64-13.37s-12.64,5.28-12.64,13.37,5.55,13.37,12.64,13.37,12.64-5.28,12.64-13.37Z"/><path class="cls-2" d="M565.45,285.05h11.7v19.39c-5.42,3.88-12.84,5.95-19.66,5.95-14.91,0-25.81-10.1-25.81-24.34s10.9-24.34,26.08-24.34c8.76,0,15.85,3.01,20.46,8.56l-8.42,7.62c-3.21-3.54-6.89-5.22-11.37-5.22-8.02,0-13.37,5.28-13.37,13.37s5.35,13.37,13.24,13.37c2.47,0,4.81-.47,7.16-1.54v-12.84Z"/><path class="cls-2" d="M597,262.65h13.24v46.8h-13.24v-46.8Z"/><path class="cls-2" d="M649.15,292.47l-4.95,5.28v11.7h-13.11v-46.8h13.11v19.46l18.12-19.46h14.58l-19.12,20.73,20.13,26.08h-15.38l-13.37-16.98Z"/><path class="cls-2" d="M731.05,266.93v18.39h24.21v4.28h-24.21v19.86h-4.95v-46.8h32.09v4.28h-27.15Z"/><path class="cls-2" d="M779.45,289.46v-26.81h4.95v26.61c0,11.1,5.22,16.18,14.31,16.18s14.38-5.08,14.38-16.18v-26.61h4.81v26.81c0,13.44-7.22,20.39-19.19,20.39s-19.26-6.95-19.26-20.39Z"/><path class="cls-2" d="M877.34,305.18v4.28h-33.1v-46.8h32.09v4.28h-27.15v16.65h24.21v4.21h-24.21v17.38h28.15Z"/><path class="cls-2" d="M900.4,262.65h4.95v42.53h26.21v4.28h-31.16v-46.8Z"/></g><g><path class="cls-2" d="M277.23,370.29c-10.38-.94-18.93-9.27-20.1-19.63-.19-1.71-.19-3.38-.02-5,.1-.89,.12-1.78,.12-2.67-.16-4.88-1.47-9.62-3.97-13.72-.02-.03-.03-.05-.05-.08-1.03-1.68-2.26-3.25-3.69-4.68l-2.53-2.53c-1.61-1.61-3.42-2.99-5.34-4.16-3.49-2.02-7.4-3.22-11.46-3.64-1.89-.2-3.81-.24-5.74-.09-.39,.03-.79,.04-1.19,.05-.14,0-.28,.02-.42,.02h-.02s-.04,0-.06,0c-.02,0-.04,0-.06,0-.59,0-1.17-.02-1.74-.07-8.39-.65-16.7,1.93-22.65,7.88l-1.48,1.48c-3.42,3.42-5.93,7.62-7.29,12.16-.96,3.22-1.35,6.61-.98,10.02,0,.02,0,.04,0,.07,.08,.78,.13,1.56,.13,2.36h0s0,.08,0,.12c0,.77-.05,1.52-.13,2.27,0,.04,0,.09,0,.13-.15,1.36-.43,2.69-.83,3.98-.08,.26-.18,.51-.27,.77-.13,.36-.25,.73-.4,1.09-.15,.37-.32,.74-.49,1.1-.1,.21-.19,.41-.3,.62-.23,.45-.47,.88-.72,1.31-.05,.09-.1,.17-.16,.26-2.23,3.65-5.48,6.59-9.35,8.47-.14,.07-.27,.14-.41,.2-.4,.18-.8,.35-1.21,.51-.27,.11-.55,.21-.82,.3-.33,.11-.65,.22-.98,.32-.4,.12-.8,.22-1.21,.31-.25,.06-.49,.12-.74,.17-.53,.1-1.06,.18-1.6,.24-.17,.02-.33,.05-.49,.07-.05,0-.09,.01-.14,.02-.23,.02-.45,0-.68,.02-.46,.03-.92,.07-1.38,.07-.09,0-.18-.01-.28-.01-.32,0-.64-.03-.96-.05-.49-.03-.97-.06-1.45-.11-.33-.04-.66-.1-.98-.15-.46-.08-.91-.16-1.36-.26-.32-.07-.64-.16-.96-.25-.44-.12-.86-.25-1.29-.4-.31-.11-.62-.22-.92-.34-.42-.17-.83-.35-1.24-.54-.29-.14-.58-.27-.86-.41-.41-.21-.81-.45-1.2-.69-.26-.15-.52-.3-.77-.47-.42-.28-.83-.58-1.23-.89-.2-.15-.41-.29-.61-.45-.58-.47-1.14-.97-1.66-1.5l-.02-.02c-.17-.17-.31-.36-.48-.53-.35-.38-.71-.76-1.04-1.16-.16-.19-.3-.4-.45-.6-.31-.4-.61-.81-.9-1.24-.16-.25-.31-.51-.46-.76-.24-.4-.47-.79-.69-1.21-.15-.28-.28-.57-.41-.86-.19-.41-.37-.82-.54-1.24-.12-.3-.23-.61-.34-.92-.15-.43-.28-.85-.4-1.29-.09-.32-.17-.64-.25-.96-.1-.45-.19-.9-.26-1.36-.05-.33-.11-.65-.15-.98-.06-.48-.09-.96-.12-1.45-.02-.32-.04-.64-.05-.96,0-.1-.01-.19-.01-.28,0-.46,.04-.92,.07-1.38,.01-.23,0-.45,.02-.68,0-.05,.01-.09,.02-.14,.02-.17,.05-.33,.07-.5,.06-.54,.14-1.07,.24-1.59,.05-.25,.11-.49,.17-.74,.09-.41,.19-.81,.31-1.21,.1-.33,.2-.65,.31-.97,.1-.28,.2-.56,.31-.84,.16-.4,.32-.8,.5-1.19,.07-.15,.14-.29,.21-.43,1.6-3.32,3.99-6.17,6.93-8.33l.03-.02c.45-.33,.92-.64,1.4-.94,.11-.07,.23-.14,.35-.21,.41-.24,.82-.48,1.25-.7,.23-.12,.47-.23,.7-.34,.34-.16,.68-.32,1.03-.46,.42-.17,.86-.32,1.29-.47,.19-.06,.38-.14,.57-.2,1.26-.39,2.56-.67,3.9-.83,.07,0,.13,0,.2-.01,.57-.06,1.16-.09,1.75-.11,.22,0,.44-.03,.65-.03,.02,0,.05,0,.07,0,.78,0,1.55,.04,2.32,.12h.02c7.99,.84,15.89-2.28,21.58-7.97l2.23-2.23c5.67-5.67,8.79-13.54,7.97-21.52-.17-1.62-.16-3.3,.04-5,1.2-10.16,9.5-18.39,19.68-19.49,.11-.01,.21,0,.32-.02,.14-.01,.28-.01,.42-.02,.25-.02,.5-.03,.75-.04,.26-.01,.52-.04,.79-.04,.09,0,.18,0,.27,0,.02,0,.04,0,.07,0,.48,0,.94,.04,1.41,.07,.22,.01,.44,0,.67,.02,.04,0,.08,.01,.13,.02,.16,.02,.31,.04,.46,.06,.55,.06,1.09,.14,1.63,.25,.24,.05,.48,.11,.72,.16,.42,.1,.83,.2,1.24,.32,.32,.09,.64,.2,.95,.31,.29,.1,.57,.2,.86,.31,.4,.15,.79,.32,1.17,.49,.16,.07,.31,.15,.46,.22,3.31,1.6,6.16,3.99,8.31,6.93l.04,.05c.32,.44,.63,.9,.91,1.36,.08,.13,.16,.26,.24,.39,.23,.39,.46,.79,.67,1.2,.13,.25,.25,.5,.36,.76,.15,.32,.3,.65,.44,.98,.18,.43,.33,.86,.48,1.3,.06,.19,.14,.37,.2,.56,.39,1.27,.68,2.59,.83,3.94,0,.06,0,.12,.01,.18,.07,.62,.09,1.25,.11,1.88,0,.17,.03,.35,.03,.52,0,.01,0,.03,0,.04,0,.79-.04,1.57-.12,2.34,0,.02,0,.04,0,.05-.1,.89-.12,1.78-.12,2.67,.12,3.57,.86,7.06,2.23,10.28,.5,1.18,1.07,2.34,1.74,3.44,.02,.03,.03,.05,.05,.08,1.03,1.68,2.26,3.25,3.69,4.68l2.52,2.52c1.61,1.61,3.42,2.99,5.34,4.16,5.12,2.96,11.13,4.2,17.2,3.73,.46-.04,.93-.05,1.39-.05,.1,0,.2-.01,.29-.01,.02,0,.04,0,.06,0,.59,0,1.17,.02,1.74,.07,8.39,.65,16.7-1.93,22.65-7.88l1.48-1.48c5.84-5.84,9.16-13.97,8.27-22.18,0-.02,0-.04,0-.07-.08-.78-.13-1.56-.13-2.36h0c0-.05,0-.1,0-.15,0-.52,.05-1.03,.09-1.54,.02-.23,.01-.47,.04-.7,0-.04,0-.09,0-.13,.15-1.36,.43-2.69,.83-3.98,.08-.26,.18-.51,.26-.77,.13-.36,.25-.73,.4-1.09,.15-.37,.32-.74,.49-1.1,.1-.21,.19-.41,.3-.62,.23-.45,.47-.88,.72-1.31,.05-.09,.1-.17,.16-.26,2.23-3.65,5.48-6.59,9.35-8.47,.14-.07,.27-.13,.41-.2,.4-.18,.8-.35,1.22-.51,.27-.11,.55-.21,.82-.3,.33-.11,.65-.22,.98-.32,.4-.12,.8-.22,1.21-.31,.25-.06,.49-.12,.74-.17,.53-.1,1.06-.18,1.6-.24,.17-.02,.33-.05,.49-.07,.05,0,.09-.01,.14-.02,.23-.02,.45,0,.68-.02,.46-.03,.92-.07,1.38-.07,.09,0,.18,.01,.28,.01,.32,0,.64,.03,.96,.05,.49,.03,.97,.06,1.45,.11,.33,.04,.66,.1,.98,.15,.46,.08,.91,.16,1.36,.26,.32,.08,.64,.16,.96,.25,.44,.12,.86,.25,1.29,.4,.31,.11,.62,.22,.92,.34,.42,.17,.83,.35,1.24,.54,.29,.14,.58,.27,.86,.41,.41,.21,.81,.45,1.2,.69,.26,.15,.52,.3,.77,.47,.42,.28,.83,.58,1.23,.89,.2,.15,.41,.29,.61,.45,.58,.47,1.14,.97,1.66,1.5l.02,.02c.53,.53,1.04,1.1,1.52,1.69,.16,.19,.3,.4,.45,.6,.31,.4,.61,.81,.9,1.24,.16,.25,.31,.51,.46,.76,.24,.4,.48,.8,.69,1.21,.15,.28,.28,.57,.41,.86,.19,.41,.37,.82,.54,1.24,.12,.3,.23,.61,.34,.92,.15,.43,.28,.85,.4,1.29,.09,.32,.17,.64,.25,.96,.1,.44,.18,.89,.26,1.34v.02c.06,.32,.11,.65,.15,.98,.06,.48,.09,.97,.12,1.45,.02,.32,.04,.63,.05,.96,0,.1,.01,.19,.01,.28,0,.47-.04,.92-.07,1.38-.01,.23,0,.45-.02,.68,0,.05-.01,.09-.02,.14-.02,.17-.05,.34-.07,.51-.06,.53-.14,1.06-.24,1.58-.05,.25-.11,.5-.17,.75-.09,.41-.19,.81-.31,1.21-.1,.33-.2,.65-.31,.97-.1,.28-.2,.56-.31,.84-.16,.4-.32,.8-.5,1.19-.07,.15-.14,.29-.21,.43-1.6,3.32-3.99,6.18-6.93,8.33l-.03,.02c-.45,.33-.92,.65-1.4,.94-.11,.07-.23,.14-.34,.21-.41,.24-.82,.48-1.25,.7-.23,.12-.47,.23-.7,.34-.34,.16-.68,.32-1.03,.46-.42,.17-.85,.32-1.29,.47-.19,.06-.38,.14-.57,.2-1.26,.39-2.56,.67-3.9,.83-.07,0-.13,0-.2,.01-.57,.06-1.16,.09-1.75,.11-.22,0-.43,.03-.65,.03-.02,0-.05,0-.07,0-.78,0-1.55-.04-2.32-.12h-.02c-7.99-.84-15.89,2.28-21.58,7.97l-2.23,2.23c-5.67,5.67-8.79,13.54-7.97,21.52,.17,1.62,.16,3.3-.04,5-1.2,10.16-9.5,18.39-19.68,19.49-.5,.05-1,.06-1.49,.08-.26,.01-.52,.04-.79,.04-.39,0-.77-.02-1.16-.04-.42-.01-.83,0-1.26-.04Z"/><circle class="cls-1" cx="270.97" cy="241.32" r="20.86"/><path class="cls-1" d="M309.38,202.14c4.12,4.12,4.12,10.79,0,14.9-4.12,4.12-10.79,4.12-14.9,0s-4.12-10.79,0-14.9,10.79-4.12,14.9,0Z"/><path class="cls-2" d="M141.03,372.54c4.07,4.07,4.07,10.68,0,14.75-4.07,4.07-10.68,4.07-14.75,0-4.07-4.07-4.07-10.68,0-14.75,4.07-4.07,10.68-4.07,14.75,0Z"/><path class="cls-1" d="M215.83,195.11c-7.96-7.35-20.6-7.25-28.44,.19-4.79,4.54-6.94,10.77-6.47,16.84,.66,8.1-2.69,16.01-8.43,21.75l-5.83,5.83c-5.74,5.74-13.65,9.09-21.73,8.43-6.07-.5-12.31,1.65-16.84,6.45-7.44,7.87-7.53,20.5-.21,28.46,8.08,8.76,21.75,8.98,30.11,.61,4.28-4.28,6.31-9.97,6.07-15.59-.33-8.41,2.43-16.6,8.36-22.56l5.9-5.88c5.93-5.93,14.15-8.72,22.53-8.36,5.62,.24,11.31-1.8,15.61-6.09,8.34-8.34,8.13-22.01-.64-30.09Z"/></g></svg>
